<svg width="683" height="193" viewBox="0 0 683 193" fill="none" xmlns="http://www.w3.org/2000/svg">
<path d="M162.215 134V131.76C166.165 131.615 169.104 131.278 171.031 130.748C172.958 130.17 174.235 129.158 174.861 127.713C175.488 126.268 175.801 124.196 175.801 121.498V61.9512C175.801 59.1569 175.488 57.0612 174.861 55.6641C174.235 54.2669 172.958 53.3034 171.031 52.7734C169.104 52.1953 166.165 51.834 162.215 51.6895V49.5215C166.695 49.6178 172.477 49.7142 179.559 49.8105C186.689 49.8587 194.975 49.8828 204.418 49.8828C208.079 49.8828 212.488 49.8828 217.643 49.8828C222.798 49.8346 227.543 49.7142 231.879 49.5215C231.638 54.821 232.288 62.0957 233.83 71.3457H231.518C229.735 66.4798 227.928 62.6497 226.098 59.8555C224.267 57.013 222.075 55.0137 219.521 53.8574C217.016 52.653 213.764 52.0508 209.766 52.0508H186.93V90.3516H198.709C204.298 90.3516 208.32 89.0508 210.777 86.4492C213.234 83.8477 214.872 79.584 215.691 73.6582H217.643C217.354 78.4277 217.209 82.041 217.209 84.498C217.257 86.9551 217.281 89.2917 217.281 91.5078C217.281 92.4714 217.305 93.5794 217.354 94.832C217.402 96.0365 217.474 97.7708 217.57 100.035C217.715 102.251 217.883 105.359 218.076 109.357H216.053C215.571 104.973 214.728 101.577 213.523 99.168C212.367 96.7591 210.609 95.0729 208.248 94.1094C205.936 93.0977 202.756 92.5918 198.709 92.5918H186.93V121.498C186.93 124.389 187.219 126.533 187.797 127.93C188.375 129.327 189.531 130.266 191.266 130.748C193.048 131.182 195.698 131.398 199.215 131.398H204.418C211.018 131.398 216.318 130.676 220.316 129.23C224.363 127.785 227.663 125.232 230.217 121.57C232.77 117.861 235.131 112.658 237.299 105.961H239.539C238.72 112.079 238.142 117.427 237.805 122.004C237.516 126.533 237.419 130.531 237.516 134C233.083 133.904 228.169 133.831 222.773 133.783C217.426 133.687 211.307 133.639 204.418 133.639C194.975 133.639 186.713 133.687 179.631 133.783C172.549 133.831 166.743 133.904 162.215 134ZM280.586 135.518H278.49L258.111 81.8965C256.473 77.5124 253.366 75.1758 248.789 74.8867V72.5742C250.475 72.6224 252.234 72.6706 254.064 72.7188C255.895 72.7669 258.28 72.791 261.219 72.791C265.121 72.791 268.108 72.791 270.18 72.791C272.251 72.791 274.419 72.7188 276.684 72.5742V74.8867C273.552 74.8867 271.456 75.6335 270.396 77.127C269.337 78.5723 269.577 81.3665 271.119 85.5098L283.549 118.535L292.799 88.6172C293.714 85.7266 294.413 83.2936 294.895 81.3184C295.376 79.3431 295.087 77.8255 294.027 76.7656C292.967 75.6576 290.583 75.0312 286.873 74.8867V72.5742C289.86 72.7188 292.004 72.8151 293.305 72.8633C294.605 72.8633 296.219 72.8633 298.146 72.8633C300.218 72.8633 302.097 72.8633 303.783 72.8633C305.469 72.8633 306.939 72.7669 308.191 72.5742V74.8867C304.674 75.7057 301.736 77.9701 299.375 81.6797C297.014 85.3411 294.774 90.5443 292.654 97.2891L280.586 135.518ZM344.324 135.662C338.784 135.662 333.942 134.337 329.799 131.688C325.656 129.038 322.428 125.352 320.115 120.631C317.803 115.91 316.646 110.49 316.646 104.371C316.646 94.3021 319.176 86.2083 324.234 80.0898C329.341 73.9232 336.351 70.8398 345.264 70.8398C350.178 70.8398 354.441 72.1406 358.055 74.7422C361.716 77.3438 364.535 80.7161 366.51 84.8594C368.485 89.0026 369.424 93.3626 369.328 97.9395H328.281C328.233 98.4694 328.209 99.2161 328.209 100.18C328.209 110.923 329.919 118.872 333.34 124.027C336.809 129.182 341.699 131.76 348.01 131.76C352.057 131.76 355.79 130.796 359.211 128.869C362.632 126.942 365.329 123.786 367.305 119.402L369.256 121.787C367.377 126.412 364.221 129.881 359.789 132.193C355.405 134.506 350.25 135.662 344.324 135.662ZM344.541 73.1523C341.939 73.1523 339.482 74.2604 337.17 76.4766C334.906 78.6445 332.979 81.4629 331.389 84.9316C329.847 88.3522 328.859 91.8932 328.426 95.5547H357.91C358.055 87.2682 357.019 81.4629 354.803 78.1387C352.635 74.8145 349.214 73.1523 344.541 73.1523ZM379.879 134V131.76C384.118 131.808 387.033 131.158 388.623 129.809C390.261 128.46 391.08 126.243 391.08 123.16V85.2207C391.08 81.6556 390.237 79.1022 388.551 77.5605C386.865 75.9707 383.974 75.0312 379.879 74.7422V72.502C381.276 72.6947 382.697 72.8151 384.143 72.8633C385.636 72.8633 387.13 72.8633 388.623 72.8633C390.936 72.8633 393.2 72.7428 395.416 72.502C397.68 72.2611 399.824 71.8275 401.848 71.2012V84.209C403.823 79.584 406.545 76.2116 410.014 74.0918C413.482 71.9238 417.312 70.8398 421.504 70.8398C427.478 70.8398 432.079 73.1764 435.307 77.8496C438.535 82.4746 440.148 89.1712 440.148 97.9395V123.16C440.148 126.388 440.943 128.652 442.533 129.953C444.171 131.206 447.11 131.808 451.35 131.76V134C449.76 133.904 447.375 133.807 444.195 133.711C441.016 133.566 437.908 133.494 434.873 133.494C432.079 133.494 429.381 133.566 426.779 133.711C424.178 133.807 422.202 133.904 420.854 134V131.76C424.178 131.808 426.418 131.206 427.574 129.953C428.779 128.652 429.381 126.388 429.381 123.16V92.0859C429.381 86.0638 428.345 81.6556 426.273 78.8613C424.25 76.0671 421.191 74.6699 417.096 74.6699C410.785 74.6699 405.702 79.584 401.848 89.4121V123.16C401.848 126.243 402.45 128.46 403.654 129.809C404.907 131.158 407.147 131.808 410.375 131.76V134C408.544 133.904 406.424 133.807 404.016 133.711C401.607 133.566 399.053 133.494 396.355 133.494C393.417 133.494 390.502 133.542 387.611 133.639C384.721 133.687 382.143 133.807 379.879 134ZM477.582 135.662C472.668 135.662 469.151 134.217 467.031 131.326C464.911 128.436 463.852 123.714 463.852 117.162V74.8867H453.951V72.6465H463.852V54.4355C465.73 54.4837 467.585 54.3392 469.416 54.002C471.247 53.6165 472.981 53.1829 474.619 52.7012V72.6465H489V74.8867H474.619V125.039C474.619 127.4 475.053 129.158 475.92 130.314C476.835 131.423 478.377 131.977 480.545 131.977C482.665 131.977 484.544 130.724 486.182 128.219C487.82 125.714 488.952 122.582 489.578 118.824L491.24 119.33C489.41 130.218 484.857 135.662 477.582 135.662ZM523.615 135.518C517.593 135.518 512.944 133.301 509.668 128.869C506.44 124.389 504.826 117.572 504.826 108.418V85.2207C504.826 81.6556 503.983 79.1263 502.297 77.6328C500.659 76.0911 497.72 75.1276 493.48 74.7422V72.502C494.492 72.6465 495.745 72.7428 497.238 72.791C498.78 72.8392 500.298 72.8633 501.791 72.8633C504.2 72.8633 506.512 72.7428 508.729 72.502C510.993 72.2611 513.305 71.8275 515.666 71.2012V116.945C515.666 122.341 516.654 126.195 518.629 128.508C520.652 130.82 523.712 131.977 527.807 131.977C530.697 131.977 533.419 130.868 535.973 128.652C538.526 126.388 540.718 122.823 542.549 117.957V85.2207C542.549 81.5111 541.778 78.9336 540.236 77.4883C538.743 76.043 536.045 75.1276 532.143 74.7422V72.502C533.251 72.6465 534.527 72.7428 535.973 72.791C537.466 72.8392 538.887 72.8633 540.236 72.8633C542.549 72.8633 544.765 72.7669 546.885 72.5742C549.053 72.3333 551.197 71.8757 553.316 71.2012V121.354C553.316 124.967 554.16 127.568 555.846 129.158C557.58 130.748 560.567 131.663 564.807 131.904V134.072C562.061 133.831 559.266 133.711 556.424 133.711C554.015 133.711 551.678 133.807 549.414 134C547.15 134.241 544.861 134.699 542.549 135.373V122.799C540.718 127.327 538.117 130.579 534.744 132.555C531.42 134.53 527.71 135.518 523.615 135.518ZM570.66 134V131.76C574.37 131.663 576.875 131.037 578.176 129.881C579.525 128.725 580.199 126.484 580.199 123.16V85.2207C580.199 81.6556 579.477 79.1022 578.031 77.5605C576.586 75.9707 574.129 75.0312 570.66 74.7422V72.502C572.346 72.6947 573.84 72.8151 575.141 72.8633C576.49 72.8633 577.79 72.8633 579.043 72.8633C580.874 72.8633 582.825 72.7428 584.896 72.502C586.968 72.2611 588.992 71.8275 590.967 71.2012V79.2227C592.46 76.3802 594.676 74.2845 597.615 72.9355C600.602 71.5384 603.517 70.8398 606.359 70.8398C609.346 70.8398 611.731 71.8997 613.514 74.0195C615.296 76.0911 616.188 78.7891 616.188 82.1133C616.188 85.0521 615.682 87.485 614.67 89.4121C613.658 91.291 612.309 92.2305 610.623 92.2305C609.033 92.2305 607.732 91.7728 606.721 90.8574C605.757 89.8939 605.275 88.5931 605.275 86.9551C605.275 84.6908 605.613 82.86 606.287 81.4629C606.962 80.0658 607.299 78.5241 607.299 76.8379C607.299 75.3444 606.118 74.5977 603.758 74.5977C601.349 74.5977 598.796 75.3203 596.098 76.7656C593.448 78.2109 591.738 80.9089 590.967 84.8594V122.293C590.967 125.714 591.882 128.122 593.713 129.52C595.592 130.917 598.796 131.663 603.324 131.76V134C601.542 133.904 598.988 133.807 595.664 133.711C592.388 133.566 589.112 133.494 585.836 133.494C582.753 133.494 579.814 133.566 577.02 133.711C574.225 133.807 572.105 133.904 570.66 134ZM642.059 135.662C637.241 135.662 633.387 134.265 630.496 131.471C627.654 128.676 626.232 124.581 626.232 119.186C626.232 115.331 626.955 112.272 628.4 110.008C629.894 107.743 631.821 106.009 634.182 104.805C636.542 103.552 639.072 102.589 641.77 101.914C644.467 101.191 647.069 100.517 649.574 99.8906C652.079 99.2161 654.175 98.3249 655.861 97.2168C657.596 96.0605 658.656 94.4225 659.041 92.3027C658.704 86.4733 657.668 81.9447 655.934 78.7168C654.247 75.4889 651.814 73.875 648.635 73.875C645.551 73.875 642.854 74.3568 640.541 75.3203C638.277 76.2357 637.145 77.4883 637.145 79.0781C637.145 80.5716 637.674 82.2096 638.734 83.9922C639.794 85.7747 640.324 87.4609 640.324 89.0508C640.324 90.5443 639.818 91.7246 638.807 92.5918C637.843 93.459 636.542 93.8926 634.904 93.8926C633.025 93.8926 631.508 93.2422 630.352 91.9414C629.195 90.6406 628.617 88.8822 628.617 86.666C628.617 83.8236 629.629 81.1979 631.652 78.7891C633.676 76.3802 636.422 74.4531 639.891 73.0078C643.359 71.5625 647.214 70.8398 651.453 70.8398C658.198 70.8398 662.943 73.1764 665.689 77.8496C668.484 82.5228 669.881 89.1471 669.881 97.7227V126.557C669.881 130.314 671.037 132.193 673.35 132.193C674.65 132.193 675.903 132.025 677.107 131.688C678.312 131.302 679.324 130.218 680.143 128.436L681.371 130.387C679.589 132.555 677.83 133.976 676.096 134.65C674.41 135.325 672.217 135.662 669.52 135.662C662.678 135.662 659.258 132.025 659.258 124.75C657.186 128.122 654.729 130.796 651.887 132.771C649.044 134.699 645.768 135.662 642.059 135.662ZM646.973 130.531C649.285 130.531 651.501 129.929 653.621 128.725C655.789 127.52 657.644 125.352 659.186 122.221V96.9277C659.186 96.1569 659.186 95.3861 659.186 94.6152C658.656 97.1204 657.572 98.8789 655.934 99.8906C654.344 100.902 652.513 101.673 650.441 102.203C648.37 102.733 646.322 103.432 644.299 104.299C642.324 105.166 640.686 106.66 639.385 108.779C638.084 110.899 637.434 114.127 637.434 118.463C637.434 122.413 638.277 125.424 639.963 127.496C641.697 129.52 644.034 130.531 646.973 130.531Z" fill="#DAA3FF"/>
<path d="M216.838 186V163.362H234.262V166.068H219.973V173.064H232.81V175.77H219.973V183.294H234.46V186H216.838ZM248.741 186L240.293 163.362H243.692L249.5 179.4C249.632 179.708 249.764 180.06 249.896 180.456C250.028 180.852 250.16 181.237 250.292 181.611C250.424 181.985 250.545 182.315 250.655 182.601H250.853C250.941 182.337 251.051 182.018 251.183 181.644C251.315 181.27 251.447 180.896 251.579 180.522C251.711 180.126 251.843 179.752 251.975 179.4L257.717 163.362H261.017L252.536 186H248.741ZM267.829 186V163.362H285.253V166.068H270.964V173.064H283.801V175.77H270.964V183.294H285.451V186H267.829ZM293.792 186V163.362H296.828L307.817 178.278C307.927 178.41 308.07 178.608 308.246 178.872C308.422 179.136 308.598 179.4 308.774 179.664C308.95 179.906 309.093 180.126 309.203 180.324H309.335C309.335 179.972 309.335 179.631 309.335 179.301C309.335 178.949 309.335 178.608 309.335 178.278V163.362H312.404V186H309.533L298.412 170.82C298.258 170.578 298.027 170.237 297.719 169.797C297.433 169.357 297.191 169.005 296.993 168.741H296.828C296.828 169.093 296.828 169.445 296.828 169.797C296.828 170.127 296.828 170.468 296.828 170.82V186H293.792ZM327.265 186V166.101H319.51V163.362H338.221V166.101H330.4V186H327.265ZM355.89 186V163.362H360.741L365.889 178.047C366.021 178.443 366.153 178.883 366.285 179.367C366.439 179.829 366.571 180.269 366.681 180.687C366.813 181.105 366.912 181.468 366.978 181.776H367.209C367.275 181.446 367.363 181.072 367.473 180.654C367.583 180.214 367.704 179.763 367.836 179.301C367.968 178.839 368.089 178.421 368.199 178.047L373.347 163.362H378.165V186H375.03V172.734C375.03 172.052 375.041 171.315 375.063 170.523C375.085 169.709 375.107 168.972 375.129 168.312C375.151 167.63 375.162 167.146 375.162 166.86H374.898C374.832 167.146 374.722 167.553 374.568 168.081C374.414 168.587 374.249 169.126 374.073 169.698C373.919 170.248 373.776 170.743 373.644 171.183L368.331 186H365.625L360.312 171.183C360.18 170.809 360.037 170.38 359.883 169.896C359.751 169.39 359.608 168.873 359.454 168.345C359.322 167.817 359.19 167.322 359.058 166.86H358.827C358.849 167.344 358.86 167.949 358.86 168.675C358.882 169.379 358.893 170.094 358.893 170.82C358.915 171.524 358.926 172.162 358.926 172.734V186H355.89ZM384.854 186L393.797 163.362H397.922L406.898 186H403.499L401.288 180.39H390.266L388.088 186H384.854ZM391.289 177.717H400.232L397.493 170.622C397.427 170.424 397.328 170.149 397.196 169.797C397.064 169.445 396.921 169.06 396.767 168.642C396.613 168.202 396.459 167.762 396.305 167.322C396.151 166.86 396.008 166.442 395.876 166.068H395.678C395.524 166.508 395.348 167.014 395.15 167.586C394.952 168.158 394.754 168.719 394.556 169.269C394.358 169.797 394.193 170.248 394.061 170.622L391.289 177.717ZM413.585 186V163.362H416.621L427.61 178.278C427.72 178.41 427.863 178.608 428.039 178.872C428.215 179.136 428.391 179.4 428.567 179.664C428.743 179.906 428.886 180.126 428.996 180.324H429.128C429.128 179.972 429.128 179.631 429.128 179.301C429.128 178.949 429.128 178.608 429.128 178.278V163.362H432.197V186H429.326L418.205 170.82C418.051 170.578 417.82 170.237 417.512 169.797C417.226 169.357 416.984 169.005 416.786 168.741H416.621C416.621 169.093 416.621 169.445 416.621 169.797C416.621 170.127 416.621 170.468 416.621 170.82V186H413.585ZM438.907 186L447.85 163.362H451.975L460.951 186H457.552L455.341 180.39H444.319L442.141 186H438.907ZM445.342 177.717H454.285L451.546 170.622C451.48 170.424 451.381 170.149 451.249 169.797C451.117 169.445 450.974 169.06 450.82 168.642C450.666 168.202 450.512 167.762 450.358 167.322C450.204 166.86 450.061 166.442 449.929 166.068H449.731C449.577 166.508 449.401 167.014 449.203 167.586C449.005 168.158 448.807 168.719 448.609 169.269C448.411 169.797 448.246 170.248 448.114 170.622L445.342 177.717ZM477.416 186.396C473.764 186.396 470.981 185.439 469.067 183.525C467.175 181.611 466.229 178.663 466.229 174.681C466.229 172.085 466.669 169.918 467.549 168.18C468.429 166.442 469.727 165.144 471.443 164.286C473.159 163.406 475.249 162.966 477.713 162.966C479.253 162.966 480.65 163.131 481.904 163.461C483.158 163.791 484.236 164.297 485.138 164.979C486.062 165.639 486.766 166.475 487.25 167.487C487.756 168.499 488.009 169.698 488.009 171.084H484.808C484.808 170.116 484.632 169.291 484.28 168.609C483.928 167.905 483.422 167.333 482.762 166.893C482.124 166.453 481.376 166.145 480.518 165.969C479.66 165.771 478.747 165.672 477.779 165.672C476.459 165.672 475.282 165.837 474.248 166.167C473.214 166.497 472.345 167.014 471.641 167.718C470.937 168.422 470.398 169.324 470.024 170.424C469.65 171.524 469.463 172.833 469.463 174.351V175.044C469.463 177.09 469.771 178.751 470.387 180.027C471.025 181.303 471.938 182.238 473.126 182.832C474.314 183.404 475.744 183.69 477.416 183.69C479.11 183.69 480.507 183.459 481.607 182.997C482.707 182.513 483.521 181.787 484.049 180.819C484.599 179.851 484.874 178.63 484.874 177.156V176.76H476.888V174.087H488.042V186H485.666L485.336 183.129C484.742 183.899 484.038 184.526 483.224 185.01C482.41 185.494 481.508 185.846 480.518 186.066C479.55 186.286 478.516 186.396 477.416 186.396ZM497.114 186V163.362H514.538V166.068H500.249V173.064H513.086V175.77H500.249V183.294H514.736V186H497.114ZM523.077 186V163.362H527.928L533.076 178.047C533.208 178.443 533.34 178.883 533.472 179.367C533.626 179.829 533.758 180.269 533.868 180.687C534 181.105 534.099 181.468 534.165 181.776H534.396C534.462 181.446 534.55 181.072 534.66 180.654C534.77 180.214 534.891 179.763 535.023 179.301C535.155 178.839 535.276 178.421 535.386 178.047L540.534 163.362H545.352V186H542.217V172.734C542.217 172.052 542.228 171.315 542.25 170.523C542.272 169.709 542.294 168.972 542.316 168.312C542.338 167.63 542.349 167.146 542.349 166.86H542.085C542.019 167.146 541.909 167.553 541.755 168.081C541.601 168.587 541.436 169.126 541.26 169.698C541.106 170.248 540.963 170.743 540.831 171.183L535.518 186H532.812L527.499 171.183C527.367 170.809 527.224 170.38 527.07 169.896C526.938 169.39 526.795 168.873 526.641 168.345C526.509 167.817 526.377 167.322 526.245 166.86H526.014C526.036 167.344 526.047 167.949 526.047 168.675C526.069 169.379 526.08 170.094 526.08 170.82C526.102 171.524 526.113 172.162 526.113 172.734V186H523.077ZM554.647 186V163.362H572.071V166.068H557.782V173.064H570.619V175.77H557.782V183.294H572.269V186H554.647ZM580.61 186V163.362H583.646L594.635 178.278C594.745 178.41 594.888 178.608 595.064 178.872C595.24 179.136 595.416 179.4 595.592 179.664C595.768 179.906 595.911 180.126 596.021 180.324H596.153C596.153 179.972 596.153 179.631 596.153 179.301C596.153 178.949 596.153 178.608 596.153 178.278V163.362H599.222V186H596.351L585.23 170.82C585.076 170.578 584.845 170.237 584.537 169.797C584.251 169.357 584.009 169.005 583.811 168.741H583.646C583.646 169.093 583.646 169.445 583.646 169.797C583.646 170.127 583.646 170.468 583.646 170.82V186H580.61ZM614.083 186V166.101H606.328V163.362H625.039V166.101H617.218V186H614.083Z" fill="#DAA3FF"/>
<path d="M106.9 44.5195L125.4 56L121.4 35.1145L137.9 19.8955H114.908L106.9 0L98.8914 19.8955H75.8999L92.8999 35.1145L88.3999 57L106.9 44.5195Z" fill="#DAA3FF"/>
<path d="M46.9 41C20.971 41 0 61.971 0 87.9C0 123.075 46.9 175 46.9 175C46.9 175 93.8 123.075 93.8 87.9C93.8 61.971 72.829 41 46.9 41ZM46.9 104.65C37.654 104.65 30.15 97.146 30.15 87.9C30.15 78.654 37.654 71.15 46.9 71.15C56.146 71.15 63.65 78.654 63.65 87.9C63.65 97.146 56.146 104.65 46.9 104.65Z" fill="#DAA3FF"/>
</svg>
